M48
;GenerationSoftware,Autodesk,EAGLE,9.7.0*%
;CreationDate,2025-04-06T15:07:13Z*%
FMAT,2
ICI,OFF
METRIC,TZ,000.000
T2C0.300
T1C0.650
%
G90
M71
T1
X164678Y57190
X164678Y51410
T2
X24638Y106934
X25971Y105600
X10478Y48323
X11112Y48958
X62230Y20130
X62230Y17209
X153480Y51943
X155321Y50101
X125666Y49022
X124523Y50165
X129667Y52578
X132080Y39497
X128206Y49974
X140526Y46990
X151448Y53975
X162624Y53149
X155639Y54991
X162624Y54991
X147447Y56578
X22796Y45847
X150559Y56134
X71692Y48450
X125984Y53403
X128270Y55689
X142685Y50165
X11557Y82931
X11557Y44450
X83122Y14160
X107315Y14160
X40323Y4699
X23812Y4699
X44958Y9589
X15113Y25019
X13144Y82741
X13144Y45466
X67120Y20701
X4763Y91122
X12700Y44577
X83630Y13716
X102679Y13716
X46990Y3111
X28702Y3111
X12192Y15240
X65596Y10097
X72263Y27114
X42926Y48895
X16828Y52451
X7429Y92265
X7937Y61976
X90106Y16637
X80963Y28702
X84646Y32385
X74105Y18352
X102044Y27495
X78613Y16192
X91376Y29146
X81725Y20130
X80836Y19241
X89662Y14605
X74930Y13525
X55880Y16701
X59690Y15811
X121475Y42609
X124841Y43434
X135128Y48260
X129730Y42863
X85090Y16510
X26416Y68834
X144336Y20320
X145733Y23431
X152718Y20828
X39561Y62420
X20003Y62420
X89979Y51308
X56388Y63754
X99123Y42164
X92392Y48895
X148019Y17780
X148019Y20511
X153734Y19812
X39116Y65786
X30416Y65786
X89344Y51752
X90170Y48006
X80455Y39053
X52006Y67501
X26987Y64452
X135319Y29591
X144145Y23431
X143193Y23431
X23622Y61976
X60071Y58039
X42990Y105854
X43625Y106489
X28003Y50165
X23177Y45339
X46609Y8573
X42545Y12636
X84074Y16192
X89725Y16192
X31115Y5144
X21019Y16383
X91440Y13271
X31305Y68136
X58864Y107378
X14668Y24193
X17971Y42164
X65596Y14414
X14414Y42228
X2096Y30988
X11747Y40640
X88709Y11938
X109220Y3556
X17463Y53086
X84646Y17018
X27114Y106045
X26733Y107950
X62039Y103695
X31115Y16955
X93218Y50863
X88138Y57848
X17653Y44894
X72454Y44894
X87630Y66675
X88900Y56832
X90170Y58102
X18479Y44450
X72898Y44450
X77089Y16383
X75692Y17780
X82550Y17399
X84265Y17907
X93154Y59055
X90805Y61404
X15557Y13970
X13589Y47180
M30