G04 EAGLE Gerber RS-274X export*
G75*
%MOMM*%
%FSLAX34Y34*%
%LPD*%
%INSolderpaste Top*%
%IPPOS*%
%AMOC8*
5,1,8,0,0,1.08239X$1,22.5*%
G01*
G04 Define Apertures*
%ADD10R,1.400000X1.050000*%
%ADD11R,0.900000X0.700000*%
%ADD12R,1.400000X1.400000*%
%ADD13R,0.700000X0.900000*%
%ADD14R,2.200000X2.000000*%
%ADD15R,0.800000X0.800000*%
%ADD16R,1.200000X0.600000*%
%ADD17R,0.970000X0.940000*%
%ADD18R,0.800000X0.900000*%
%ADD19R,1.150000X0.800000*%
%ADD20R,0.900000X0.600000*%
%ADD21R,0.300000X0.800000*%
%ADD22R,0.400000X0.800000*%
%ADD23R,1.150000X0.300000*%
%ADD24R,2.000000X2.180000*%
%ADD25R,2.000000X1.200000*%
%ADD26R,1.350000X0.600000*%
%ADD27R,1.200000X1.800000*%
%ADD28R,1.900000X1.400000*%
%ADD29R,1.500000X0.700000*%
%ADD30R,0.127000X0.127000*%
%ADD31R,1.200000X0.550000*%
%ADD32R,1.500000X3.600000*%
%ADD33R,0.900000X0.800000*%
%ADD34R,0.500000X1.050000*%
%ADD35C,0.125000*%
%ADD36R,1.168400X1.600200*%
%ADD37R,1.010000X1.460000*%
%ADD38C,0.110000*%
%ADD39R,0.900000X1.500000*%
%ADD40C,0.147500*%
%ADD41R,0.560000X0.820000*%
%ADD42C,0.067500*%
D10*
X657500Y1087000D03*
X622500Y1087000D03*
X622500Y1072000D03*
X657500Y1072000D03*
D11*
X1460500Y171300D03*
X1460500Y184300D03*
X533400Y1077778D03*
X533400Y1064778D03*
D12*
X977900Y497000D03*
X977900Y519000D03*
D13*
X1225400Y508000D03*
X1238400Y508000D03*
X1288900Y571500D03*
X1301900Y571500D03*
X1288900Y546100D03*
X1301900Y546100D03*
D11*
X1447800Y171300D03*
X1447800Y184300D03*
X1358900Y412900D03*
X1358900Y399900D03*
D14*
X1320800Y408700D03*
X1320800Y378700D03*
D11*
X596900Y184000D03*
X596900Y197000D03*
X1549400Y476100D03*
X1549400Y489100D03*
X279400Y1060300D03*
X279400Y1073300D03*
X1498600Y438000D03*
X1498600Y451000D03*
X673100Y1073300D03*
X673100Y1060300D03*
X584200Y184000D03*
X584200Y197000D03*
X952500Y590400D03*
X952500Y603400D03*
D13*
X120500Y990600D03*
X133500Y990600D03*
D10*
X507500Y1087000D03*
X472500Y1087000D03*
X472500Y1072000D03*
X507500Y1072000D03*
D15*
X1231900Y411600D03*
X1231900Y426600D03*
D11*
X673100Y882800D03*
X673100Y869800D03*
D16*
X1549200Y523900D03*
X1549200Y533400D03*
X1549200Y542900D03*
X1524200Y542900D03*
X1524200Y533400D03*
X1524200Y523900D03*
D17*
X56000Y152400D03*
X71000Y152400D03*
X142772Y127000D03*
X157772Y127000D03*
X716400Y279400D03*
X731400Y279400D03*
D18*
X1259500Y508000D03*
X1280500Y508000D03*
D19*
X985800Y330200D03*
X1020800Y330200D03*
X1020800Y381000D03*
X985800Y381000D03*
X906500Y406400D03*
X871500Y406400D03*
D17*
X297300Y177800D03*
X312300Y177800D03*
D18*
X891200Y647700D03*
X912200Y647700D03*
D17*
X221100Y177800D03*
X236100Y177800D03*
X259200Y127000D03*
X274200Y127000D03*
D11*
X927100Y184000D03*
X927100Y197000D03*
X774700Y184000D03*
X774700Y197000D03*
X1054100Y387500D03*
X1054100Y374500D03*
X749300Y184000D03*
X749300Y197000D03*
X901700Y184000D03*
X901700Y197000D03*
X647700Y158900D03*
X647700Y145900D03*
X876300Y184000D03*
X876300Y197000D03*
X850900Y184000D03*
X850900Y197000D03*
X825500Y184000D03*
X825500Y197000D03*
X800100Y184000D03*
X800100Y197000D03*
D20*
X621000Y885800D03*
X621000Y876300D03*
X621000Y866800D03*
X649000Y866800D03*
X649000Y885800D03*
X1334800Y485800D03*
X1334800Y495300D03*
X1334800Y504800D03*
X1306800Y504800D03*
X1306800Y485800D03*
D21*
X895700Y154200D03*
X890700Y154200D03*
X885700Y154200D03*
X880700Y154200D03*
X875700Y154200D03*
X870700Y154200D03*
X865700Y154200D03*
X860700Y154200D03*
X855700Y154200D03*
X850700Y154200D03*
X845700Y154200D03*
X840700Y154200D03*
X835700Y154200D03*
X830700Y154200D03*
X825700Y154200D03*
X820700Y154200D03*
X815700Y154200D03*
X810700Y154200D03*
X805700Y154200D03*
X800700Y154200D03*
X795700Y154200D03*
X790700Y154200D03*
X785700Y154200D03*
X780700Y154200D03*
D22*
X905700Y129200D03*
X770700Y129200D03*
D23*
X1636028Y509500D03*
X1636028Y517500D03*
X1636028Y530500D03*
X1636028Y540500D03*
X1636028Y545500D03*
X1636028Y555500D03*
X1636028Y568500D03*
X1636028Y576500D03*
X1636028Y573500D03*
X1636028Y565500D03*
X1636028Y560500D03*
X1636028Y550500D03*
X1636028Y535500D03*
X1636028Y525500D03*
X1636028Y520500D03*
X1636028Y512500D03*
D24*
X1681078Y491900D03*
X1681078Y594100D03*
X1641778Y491900D03*
X1641778Y594100D03*
D25*
X1681078Y165000D03*
X1681078Y221000D03*
D26*
X1644328Y178000D03*
X1644328Y188000D03*
X1644328Y198000D03*
X1644328Y208000D03*
D27*
X162922Y853000D03*
X162922Y910000D03*
D28*
X20422Y823000D03*
X30422Y954500D03*
D29*
X58922Y871000D03*
X62922Y882000D03*
X58922Y893000D03*
X56922Y904000D03*
X58922Y915000D03*
X56922Y926000D03*
X58922Y937000D03*
X58922Y948000D03*
D27*
X162922Y881500D03*
X162922Y938500D03*
D30*
X889000Y365760D03*
X889000Y320040D03*
D31*
X1256999Y428600D03*
X1256999Y419100D03*
X1256999Y409600D03*
X1283001Y409600D03*
X1283001Y428600D03*
D32*
X1559200Y381000D03*
X1514200Y381000D03*
D18*
X1412900Y472600D03*
X1431900Y472600D03*
X1422400Y493600D03*
D33*
X815500Y390500D03*
X815500Y371500D03*
X836500Y381000D03*
D34*
X552300Y167300D03*
X565300Y167300D03*
X558800Y188300D03*
D11*
X127000Y222100D03*
X127000Y235100D03*
D13*
X565000Y38100D03*
X578000Y38100D03*
D11*
X1206500Y412600D03*
X1206500Y425600D03*
X1473200Y171300D03*
X1473200Y184300D03*
X939800Y501500D03*
X939800Y514500D03*
D13*
X1263800Y482600D03*
X1250800Y482600D03*
D11*
X571500Y107800D03*
X571500Y120800D03*
X1435100Y184300D03*
X1435100Y171300D03*
D13*
X882500Y457200D03*
X895500Y457200D03*
D11*
X1574800Y552300D03*
X1574800Y565300D03*
X1473200Y526900D03*
X1473200Y539900D03*
X1371600Y514200D03*
X1371600Y527200D03*
D13*
X539600Y139700D03*
X552600Y139700D03*
X590400Y165100D03*
X603400Y165100D03*
X514200Y38100D03*
X527200Y38100D03*
X463400Y38100D03*
X476400Y38100D03*
X412600Y38100D03*
X425600Y38100D03*
X361800Y38100D03*
X374800Y38100D03*
X311000Y38100D03*
X324000Y38100D03*
D10*
X257500Y1087000D03*
X222500Y1087000D03*
X222500Y1072000D03*
X257500Y1072000D03*
D11*
X596900Y1064778D03*
X596900Y1077778D03*
D13*
X895200Y622300D03*
X908200Y622300D03*
D11*
X444500Y1060300D03*
X444500Y1073300D03*
D13*
X832000Y317500D03*
X819000Y317500D03*
D11*
X203200Y1060300D03*
X203200Y1073300D03*
D35*
X1437675Y247635D02*
X1437675Y238725D01*
X1433925Y238725D01*
X1433925Y247635D01*
X1437675Y247635D01*
X1437675Y239912D02*
X1433925Y239912D01*
X1433925Y241099D02*
X1437675Y241099D01*
X1437675Y242286D02*
X1433925Y242286D01*
X1433925Y243473D02*
X1437675Y243473D01*
X1437675Y244660D02*
X1433925Y244660D01*
X1433925Y245847D02*
X1437675Y245847D01*
X1437675Y247034D02*
X1433925Y247034D01*
X1445675Y247635D02*
X1445675Y238725D01*
X1441925Y238725D01*
X1441925Y247635D01*
X1445675Y247635D01*
X1445675Y239912D02*
X1441925Y239912D01*
X1441925Y241099D02*
X1445675Y241099D01*
X1445675Y242286D02*
X1441925Y242286D01*
X1441925Y243473D02*
X1445675Y243473D01*
X1445675Y244660D02*
X1441925Y244660D01*
X1441925Y245847D02*
X1445675Y245847D01*
X1445675Y247034D02*
X1441925Y247034D01*
X1453675Y247635D02*
X1453675Y238725D01*
X1449925Y238725D01*
X1449925Y247635D01*
X1453675Y247635D01*
X1453675Y239912D02*
X1449925Y239912D01*
X1449925Y241099D02*
X1453675Y241099D01*
X1453675Y242286D02*
X1449925Y242286D01*
X1449925Y243473D02*
X1453675Y243473D01*
X1453675Y244660D02*
X1449925Y244660D01*
X1449925Y245847D02*
X1453675Y245847D01*
X1453675Y247034D02*
X1449925Y247034D01*
X1461675Y247635D02*
X1461675Y238725D01*
X1457925Y238725D01*
X1457925Y247635D01*
X1461675Y247635D01*
X1461675Y239912D02*
X1457925Y239912D01*
X1457925Y241099D02*
X1461675Y241099D01*
X1461675Y242286D02*
X1457925Y242286D01*
X1457925Y243473D02*
X1461675Y243473D01*
X1461675Y244660D02*
X1457925Y244660D01*
X1457925Y245847D02*
X1461675Y245847D01*
X1461675Y247034D02*
X1457925Y247034D01*
X1461875Y218475D02*
X1461875Y209565D01*
X1458125Y209565D01*
X1458125Y218475D01*
X1461875Y218475D01*
X1461875Y210752D02*
X1458125Y210752D01*
X1458125Y211939D02*
X1461875Y211939D01*
X1461875Y213126D02*
X1458125Y213126D01*
X1458125Y214313D02*
X1461875Y214313D01*
X1461875Y215500D02*
X1458125Y215500D01*
X1458125Y216687D02*
X1461875Y216687D01*
X1461875Y217874D02*
X1458125Y217874D01*
X1453675Y218475D02*
X1453675Y209565D01*
X1449925Y209565D01*
X1449925Y218475D01*
X1453675Y218475D01*
X1453675Y210752D02*
X1449925Y210752D01*
X1449925Y211939D02*
X1453675Y211939D01*
X1453675Y213126D02*
X1449925Y213126D01*
X1449925Y214313D02*
X1453675Y214313D01*
X1453675Y215500D02*
X1449925Y215500D01*
X1449925Y216687D02*
X1453675Y216687D01*
X1453675Y217874D02*
X1449925Y217874D01*
X1445675Y218475D02*
X1445675Y209565D01*
X1441925Y209565D01*
X1441925Y218475D01*
X1445675Y218475D01*
X1445675Y210752D02*
X1441925Y210752D01*
X1441925Y211939D02*
X1445675Y211939D01*
X1445675Y213126D02*
X1441925Y213126D01*
X1441925Y214313D02*
X1445675Y214313D01*
X1445675Y215500D02*
X1441925Y215500D01*
X1441925Y216687D02*
X1445675Y216687D01*
X1445675Y217874D02*
X1441925Y217874D01*
X1437675Y218475D02*
X1437675Y209565D01*
X1433925Y209565D01*
X1433925Y218475D01*
X1437675Y218475D01*
X1437675Y210752D02*
X1433925Y210752D01*
X1433925Y211939D02*
X1437675Y211939D01*
X1437675Y213126D02*
X1433925Y213126D01*
X1433925Y214313D02*
X1437675Y214313D01*
X1437675Y215500D02*
X1433925Y215500D01*
X1433925Y216687D02*
X1437675Y216687D01*
X1437675Y217874D02*
X1433925Y217874D01*
D36*
X525780Y114300D03*
X541020Y114300D03*
D37*
X449850Y492200D03*
X464550Y492200D03*
X449850Y473000D03*
X464550Y473000D03*
D38*
X422400Y500000D02*
X414100Y500000D01*
X414100Y503300D01*
X422400Y503300D01*
X422400Y500000D01*
X422400Y501045D02*
X414100Y501045D01*
X414100Y502090D02*
X422400Y502090D01*
X422400Y503135D02*
X414100Y503135D01*
X414100Y487300D02*
X422400Y487300D01*
X414100Y487300D02*
X414100Y490600D01*
X422400Y490600D01*
X422400Y487300D01*
X422400Y488345D02*
X414100Y488345D01*
X414100Y489390D02*
X422400Y489390D01*
X422400Y490435D02*
X414100Y490435D01*
X414100Y474600D02*
X422400Y474600D01*
X414100Y474600D02*
X414100Y477900D01*
X422400Y477900D01*
X422400Y474600D01*
X422400Y475645D02*
X414100Y475645D01*
X414100Y476690D02*
X422400Y476690D01*
X422400Y477735D02*
X414100Y477735D01*
X414100Y461900D02*
X422400Y461900D01*
X414100Y461900D02*
X414100Y465200D01*
X422400Y465200D01*
X422400Y461900D01*
X422400Y462945D02*
X414100Y462945D01*
X414100Y463990D02*
X422400Y463990D01*
X422400Y465035D02*
X414100Y465035D01*
X492000Y461900D02*
X500300Y461900D01*
X492000Y461900D02*
X492000Y465200D01*
X500300Y465200D01*
X500300Y461900D01*
X500300Y462945D02*
X492000Y462945D01*
X492000Y463990D02*
X500300Y463990D01*
X500300Y465035D02*
X492000Y465035D01*
X492000Y474600D02*
X500300Y474600D01*
X492000Y474600D02*
X492000Y477900D01*
X500300Y477900D01*
X500300Y474600D01*
X500300Y475645D02*
X492000Y475645D01*
X492000Y476690D02*
X500300Y476690D01*
X500300Y477735D02*
X492000Y477735D01*
X492000Y487300D02*
X500300Y487300D01*
X492000Y487300D02*
X492000Y490600D01*
X500300Y490600D01*
X500300Y487300D01*
X500300Y488345D02*
X492000Y488345D01*
X492000Y489390D02*
X500300Y489390D01*
X500300Y490435D02*
X492000Y490435D01*
X492000Y500000D02*
X500300Y500000D01*
X492000Y500000D02*
X492000Y503300D01*
X500300Y503300D01*
X500300Y500000D01*
X500300Y501045D02*
X492000Y501045D01*
X492000Y502090D02*
X500300Y502090D01*
X500300Y503135D02*
X492000Y503135D01*
D39*
X74400Y433200D03*
X87100Y433200D03*
X99800Y433200D03*
X112500Y433200D03*
X125200Y433200D03*
X137900Y433200D03*
X150600Y433200D03*
X163300Y433200D03*
X176000Y433200D03*
X188700Y433200D03*
X201400Y433200D03*
X214100Y433200D03*
X226800Y433200D03*
X239500Y433200D03*
X239500Y608200D03*
X226800Y608200D03*
X214100Y608200D03*
X201400Y608200D03*
X188700Y608200D03*
X176000Y608200D03*
X163300Y608200D03*
X150600Y608200D03*
X137900Y608200D03*
X125200Y608200D03*
X112500Y608200D03*
X99800Y608200D03*
X87100Y608200D03*
X74400Y608200D03*
D15*
X131600Y505650D03*
X119100Y493150D03*
X119100Y505650D03*
X119100Y518150D03*
X131600Y493150D03*
X131600Y518150D03*
X144100Y493150D03*
X144100Y505650D03*
X144100Y518150D03*
D40*
X905837Y583137D02*
X905837Y602163D01*
X910263Y602163D01*
X910263Y583137D01*
X905837Y583137D01*
X905837Y584538D02*
X910263Y584538D01*
X910263Y585939D02*
X905837Y585939D01*
X905837Y587340D02*
X910263Y587340D01*
X910263Y588741D02*
X905837Y588741D01*
X905837Y590142D02*
X910263Y590142D01*
X910263Y591543D02*
X905837Y591543D01*
X905837Y592944D02*
X910263Y592944D01*
X910263Y594345D02*
X905837Y594345D01*
X905837Y595746D02*
X910263Y595746D01*
X910263Y597147D02*
X905837Y597147D01*
X905837Y598548D02*
X910263Y598548D01*
X910263Y599949D02*
X905837Y599949D01*
X905837Y601350D02*
X910263Y601350D01*
X893137Y602163D02*
X893137Y583137D01*
X893137Y602163D02*
X897563Y602163D01*
X897563Y583137D01*
X893137Y583137D01*
X893137Y584538D02*
X897563Y584538D01*
X897563Y585939D02*
X893137Y585939D01*
X893137Y587340D02*
X897563Y587340D01*
X897563Y588741D02*
X893137Y588741D01*
X893137Y590142D02*
X897563Y590142D01*
X897563Y591543D02*
X893137Y591543D01*
X893137Y592944D02*
X897563Y592944D01*
X897563Y594345D02*
X893137Y594345D01*
X893137Y595746D02*
X897563Y595746D01*
X897563Y597147D02*
X893137Y597147D01*
X893137Y598548D02*
X897563Y598548D01*
X897563Y599949D02*
X893137Y599949D01*
X893137Y601350D02*
X897563Y601350D01*
X880437Y602163D02*
X880437Y583137D01*
X880437Y602163D02*
X884863Y602163D01*
X884863Y583137D01*
X880437Y583137D01*
X880437Y584538D02*
X884863Y584538D01*
X884863Y585939D02*
X880437Y585939D01*
X880437Y587340D02*
X884863Y587340D01*
X884863Y588741D02*
X880437Y588741D01*
X880437Y590142D02*
X884863Y590142D01*
X884863Y591543D02*
X880437Y591543D01*
X880437Y592944D02*
X884863Y592944D01*
X884863Y594345D02*
X880437Y594345D01*
X880437Y595746D02*
X884863Y595746D01*
X884863Y597147D02*
X880437Y597147D01*
X880437Y598548D02*
X884863Y598548D01*
X884863Y599949D02*
X880437Y599949D01*
X880437Y601350D02*
X884863Y601350D01*
X867737Y602163D02*
X867737Y583137D01*
X867737Y602163D02*
X872163Y602163D01*
X872163Y583137D01*
X867737Y583137D01*
X867737Y584538D02*
X872163Y584538D01*
X872163Y585939D02*
X867737Y585939D01*
X867737Y587340D02*
X872163Y587340D01*
X872163Y588741D02*
X867737Y588741D01*
X867737Y590142D02*
X872163Y590142D01*
X872163Y591543D02*
X867737Y591543D01*
X867737Y592944D02*
X872163Y592944D01*
X872163Y594345D02*
X867737Y594345D01*
X867737Y595746D02*
X872163Y595746D01*
X872163Y597147D02*
X867737Y597147D01*
X867737Y598548D02*
X872163Y598548D01*
X872163Y599949D02*
X867737Y599949D01*
X867737Y601350D02*
X872163Y601350D01*
X855037Y602163D02*
X855037Y583137D01*
X855037Y602163D02*
X859463Y602163D01*
X859463Y583137D01*
X855037Y583137D01*
X855037Y584538D02*
X859463Y584538D01*
X859463Y585939D02*
X855037Y585939D01*
X855037Y587340D02*
X859463Y587340D01*
X859463Y588741D02*
X855037Y588741D01*
X855037Y590142D02*
X859463Y590142D01*
X859463Y591543D02*
X855037Y591543D01*
X855037Y592944D02*
X859463Y592944D01*
X859463Y594345D02*
X855037Y594345D01*
X855037Y595746D02*
X859463Y595746D01*
X859463Y597147D02*
X855037Y597147D01*
X855037Y598548D02*
X859463Y598548D01*
X859463Y599949D02*
X855037Y599949D01*
X855037Y601350D02*
X859463Y601350D01*
X842337Y602163D02*
X842337Y583137D01*
X842337Y602163D02*
X846763Y602163D01*
X846763Y583137D01*
X842337Y583137D01*
X842337Y584538D02*
X846763Y584538D01*
X846763Y585939D02*
X842337Y585939D01*
X842337Y587340D02*
X846763Y587340D01*
X846763Y588741D02*
X842337Y588741D01*
X842337Y590142D02*
X846763Y590142D01*
X846763Y591543D02*
X842337Y591543D01*
X842337Y592944D02*
X846763Y592944D01*
X846763Y594345D02*
X842337Y594345D01*
X842337Y595746D02*
X846763Y595746D01*
X846763Y597147D02*
X842337Y597147D01*
X842337Y598548D02*
X846763Y598548D01*
X846763Y599949D02*
X842337Y599949D01*
X842337Y601350D02*
X846763Y601350D01*
X829637Y602163D02*
X829637Y583137D01*
X829637Y602163D02*
X834063Y602163D01*
X834063Y583137D01*
X829637Y583137D01*
X829637Y584538D02*
X834063Y584538D01*
X834063Y585939D02*
X829637Y585939D01*
X829637Y587340D02*
X834063Y587340D01*
X834063Y588741D02*
X829637Y588741D01*
X829637Y590142D02*
X834063Y590142D01*
X834063Y591543D02*
X829637Y591543D01*
X829637Y592944D02*
X834063Y592944D01*
X834063Y594345D02*
X829637Y594345D01*
X829637Y595746D02*
X834063Y595746D01*
X834063Y597147D02*
X829637Y597147D01*
X829637Y598548D02*
X834063Y598548D01*
X834063Y599949D02*
X829637Y599949D01*
X829637Y601350D02*
X834063Y601350D01*
X816937Y602163D02*
X816937Y583137D01*
X816937Y602163D02*
X821363Y602163D01*
X821363Y583137D01*
X816937Y583137D01*
X816937Y584538D02*
X821363Y584538D01*
X821363Y585939D02*
X816937Y585939D01*
X816937Y587340D02*
X821363Y587340D01*
X821363Y588741D02*
X816937Y588741D01*
X816937Y590142D02*
X821363Y590142D01*
X821363Y591543D02*
X816937Y591543D01*
X816937Y592944D02*
X821363Y592944D01*
X821363Y594345D02*
X816937Y594345D01*
X816937Y595746D02*
X821363Y595746D01*
X821363Y597147D02*
X816937Y597147D01*
X816937Y598548D02*
X821363Y598548D01*
X821363Y599949D02*
X816937Y599949D01*
X816937Y601350D02*
X821363Y601350D01*
X816937Y509063D02*
X816937Y490037D01*
X816937Y509063D02*
X821363Y509063D01*
X821363Y490037D01*
X816937Y490037D01*
X816937Y491438D02*
X821363Y491438D01*
X821363Y492839D02*
X816937Y492839D01*
X816937Y494240D02*
X821363Y494240D01*
X821363Y495641D02*
X816937Y495641D01*
X816937Y497042D02*
X821363Y497042D01*
X821363Y498443D02*
X816937Y498443D01*
X816937Y499844D02*
X821363Y499844D01*
X821363Y501245D02*
X816937Y501245D01*
X816937Y502646D02*
X821363Y502646D01*
X821363Y504047D02*
X816937Y504047D01*
X816937Y505448D02*
X821363Y505448D01*
X821363Y506849D02*
X816937Y506849D01*
X816937Y508250D02*
X821363Y508250D01*
X829637Y509063D02*
X829637Y490037D01*
X829637Y509063D02*
X834063Y509063D01*
X834063Y490037D01*
X829637Y490037D01*
X829637Y491438D02*
X834063Y491438D01*
X834063Y492839D02*
X829637Y492839D01*
X829637Y494240D02*
X834063Y494240D01*
X834063Y495641D02*
X829637Y495641D01*
X829637Y497042D02*
X834063Y497042D01*
X834063Y498443D02*
X829637Y498443D01*
X829637Y499844D02*
X834063Y499844D01*
X834063Y501245D02*
X829637Y501245D01*
X829637Y502646D02*
X834063Y502646D01*
X834063Y504047D02*
X829637Y504047D01*
X829637Y505448D02*
X834063Y505448D01*
X834063Y506849D02*
X829637Y506849D01*
X829637Y508250D02*
X834063Y508250D01*
X842337Y509063D02*
X842337Y490037D01*
X842337Y509063D02*
X846763Y509063D01*
X846763Y490037D01*
X842337Y490037D01*
X842337Y491438D02*
X846763Y491438D01*
X846763Y492839D02*
X842337Y492839D01*
X842337Y494240D02*
X846763Y494240D01*
X846763Y495641D02*
X842337Y495641D01*
X842337Y497042D02*
X846763Y497042D01*
X846763Y498443D02*
X842337Y498443D01*
X842337Y499844D02*
X846763Y499844D01*
X846763Y501245D02*
X842337Y501245D01*
X842337Y502646D02*
X846763Y502646D01*
X846763Y504047D02*
X842337Y504047D01*
X842337Y505448D02*
X846763Y505448D01*
X846763Y506849D02*
X842337Y506849D01*
X842337Y508250D02*
X846763Y508250D01*
X855037Y509063D02*
X855037Y490037D01*
X855037Y509063D02*
X859463Y509063D01*
X859463Y490037D01*
X855037Y490037D01*
X855037Y491438D02*
X859463Y491438D01*
X859463Y492839D02*
X855037Y492839D01*
X855037Y494240D02*
X859463Y494240D01*
X859463Y495641D02*
X855037Y495641D01*
X855037Y497042D02*
X859463Y497042D01*
X859463Y498443D02*
X855037Y498443D01*
X855037Y499844D02*
X859463Y499844D01*
X859463Y501245D02*
X855037Y501245D01*
X855037Y502646D02*
X859463Y502646D01*
X859463Y504047D02*
X855037Y504047D01*
X855037Y505448D02*
X859463Y505448D01*
X859463Y506849D02*
X855037Y506849D01*
X855037Y508250D02*
X859463Y508250D01*
X867737Y509063D02*
X867737Y490037D01*
X867737Y509063D02*
X872163Y509063D01*
X872163Y490037D01*
X867737Y490037D01*
X867737Y491438D02*
X872163Y491438D01*
X872163Y492839D02*
X867737Y492839D01*
X867737Y494240D02*
X872163Y494240D01*
X872163Y495641D02*
X867737Y495641D01*
X867737Y497042D02*
X872163Y497042D01*
X872163Y498443D02*
X867737Y498443D01*
X867737Y499844D02*
X872163Y499844D01*
X872163Y501245D02*
X867737Y501245D01*
X867737Y502646D02*
X872163Y502646D01*
X872163Y504047D02*
X867737Y504047D01*
X867737Y505448D02*
X872163Y505448D01*
X872163Y506849D02*
X867737Y506849D01*
X867737Y508250D02*
X872163Y508250D01*
X880437Y509063D02*
X880437Y490037D01*
X880437Y509063D02*
X884863Y509063D01*
X884863Y490037D01*
X880437Y490037D01*
X880437Y491438D02*
X884863Y491438D01*
X884863Y492839D02*
X880437Y492839D01*
X880437Y494240D02*
X884863Y494240D01*
X884863Y495641D02*
X880437Y495641D01*
X880437Y497042D02*
X884863Y497042D01*
X884863Y498443D02*
X880437Y498443D01*
X880437Y499844D02*
X884863Y499844D01*
X884863Y501245D02*
X880437Y501245D01*
X880437Y502646D02*
X884863Y502646D01*
X884863Y504047D02*
X880437Y504047D01*
X880437Y505448D02*
X884863Y505448D01*
X884863Y506849D02*
X880437Y506849D01*
X880437Y508250D02*
X884863Y508250D01*
X893137Y509063D02*
X893137Y490037D01*
X893137Y509063D02*
X897563Y509063D01*
X897563Y490037D01*
X893137Y490037D01*
X893137Y491438D02*
X897563Y491438D01*
X897563Y492839D02*
X893137Y492839D01*
X893137Y494240D02*
X897563Y494240D01*
X897563Y495641D02*
X893137Y495641D01*
X893137Y497042D02*
X897563Y497042D01*
X897563Y498443D02*
X893137Y498443D01*
X893137Y499844D02*
X897563Y499844D01*
X897563Y501245D02*
X893137Y501245D01*
X893137Y502646D02*
X897563Y502646D01*
X897563Y504047D02*
X893137Y504047D01*
X893137Y505448D02*
X897563Y505448D01*
X897563Y506849D02*
X893137Y506849D01*
X893137Y508250D02*
X897563Y508250D01*
X905837Y509063D02*
X905837Y490037D01*
X905837Y509063D02*
X910263Y509063D01*
X910263Y490037D01*
X905837Y490037D01*
X905837Y491438D02*
X910263Y491438D01*
X910263Y492839D02*
X905837Y492839D01*
X905837Y494240D02*
X910263Y494240D01*
X910263Y495641D02*
X905837Y495641D01*
X905837Y497042D02*
X910263Y497042D01*
X910263Y498443D02*
X905837Y498443D01*
X905837Y499844D02*
X910263Y499844D01*
X910263Y501245D02*
X905837Y501245D01*
X905837Y502646D02*
X910263Y502646D01*
X910263Y504047D02*
X905837Y504047D01*
X905837Y505448D02*
X910263Y505448D01*
X910263Y506849D02*
X905837Y506849D01*
X905837Y508250D02*
X910263Y508250D01*
D41*
X393700Y647700D03*
D42*
X387313Y654187D02*
X380387Y654187D01*
X380387Y656213D01*
X387313Y656213D01*
X387313Y654187D01*
X387313Y654828D02*
X380387Y654828D01*
X380387Y655469D02*
X387313Y655469D01*
X387313Y656110D02*
X380387Y656110D01*
X380387Y649187D02*
X387313Y649187D01*
X380387Y649187D02*
X380387Y651213D01*
X387313Y651213D01*
X387313Y649187D01*
X387313Y649828D02*
X380387Y649828D01*
X380387Y650469D02*
X387313Y650469D01*
X387313Y651110D02*
X380387Y651110D01*
X380387Y644187D02*
X387313Y644187D01*
X380387Y644187D02*
X380387Y646213D01*
X387313Y646213D01*
X387313Y644187D01*
X387313Y644828D02*
X380387Y644828D01*
X380387Y645469D02*
X387313Y645469D01*
X387313Y646110D02*
X380387Y646110D01*
X380387Y639187D02*
X387313Y639187D01*
X380387Y639187D02*
X380387Y641213D01*
X387313Y641213D01*
X387313Y639187D01*
X387313Y639828D02*
X380387Y639828D01*
X380387Y640469D02*
X387313Y640469D01*
X387313Y641110D02*
X380387Y641110D01*
X400087Y639187D02*
X407013Y639187D01*
X400087Y639187D02*
X400087Y641213D01*
X407013Y641213D01*
X407013Y639187D01*
X407013Y639828D02*
X400087Y639828D01*
X400087Y640469D02*
X407013Y640469D01*
X407013Y641110D02*
X400087Y641110D01*
X400087Y644187D02*
X407013Y644187D01*
X400087Y644187D02*
X400087Y646213D01*
X407013Y646213D01*
X407013Y644187D01*
X407013Y644828D02*
X400087Y644828D01*
X400087Y645469D02*
X407013Y645469D01*
X407013Y646110D02*
X400087Y646110D01*
X400087Y649187D02*
X407013Y649187D01*
X400087Y649187D02*
X400087Y651213D01*
X407013Y651213D01*
X407013Y649187D01*
X407013Y649828D02*
X400087Y649828D01*
X400087Y650469D02*
X407013Y650469D01*
X407013Y651110D02*
X400087Y651110D01*
X400087Y654187D02*
X407013Y654187D01*
X400087Y654187D02*
X400087Y656213D01*
X407013Y656213D01*
X407013Y654187D01*
X407013Y654828D02*
X400087Y654828D01*
X400087Y655469D02*
X407013Y655469D01*
X407013Y656110D02*
X400087Y656110D01*
M02*
